<svg width="60" height="60" viewBox="0 0 60 60" fill="none" xmlns="http://www.w3.org/2000/svg">
<path d="M17.7808 16.6925C18.4394 15.9851 18.3999 14.8778 17.6925 14.2192C16.9851 13.5606 15.8778 13.6001 15.2192 14.3075L17.7808 16.6925ZM15.2192 45.6925C15.8778 46.3999 16.9851 46.4394 17.6925 45.7808C18.3999 45.1222 18.4394 44.0149 17.7808 43.3075L15.2192 45.6925ZM35.7283 8.27495C35.8801 7.32046 35.2294 6.42359 34.275 6.27173C33.3205 6.11988 32.4236 6.77055 32.2717 7.72505L35.7283 8.27495ZM25.2717 51.725C25.1199 52.6795 25.7706 53.5764 26.725 53.7283C27.6795 53.8801 28.5764 53.2294 28.7283 52.275L25.2717 51.725ZM45.7808 14.3075C45.1222 13.6001 44.0149 13.5606 43.3075 14.2192C42.6001 14.8778 42.5606 15.9851 43.2192 16.6925L45.7808 14.3075ZM43.2192 43.3075C42.5606 44.0149 42.6001 45.1222 43.3075 45.7808C44.0149 46.4394 45.1222 46.3999 45.7808 45.6925L43.2192 43.3075ZM57.6828 29.6593L56.402 30.8518L57.6828 29.6593ZM57.6828 30.3407L56.402 29.1482L57.6828 30.3407ZM3.31721 29.6593L4.59803 30.8518L3.31721 29.6593ZM3.31721 30.3407L4.59803 29.1482L3.31721 30.3407ZM15.2192 14.3075L2.0364 28.4668L4.59803 30.8518L17.7808 16.6925L15.2192 14.3075ZM2.0364 31.5332L15.2192 45.6925L17.7808 43.3075L4.59803 29.1482L2.0364 31.5332ZM32.2717 7.72505L25.2717 51.725L28.7283 52.275L35.7283 8.27495L32.2717 7.72505ZM43.2192 16.6925L56.402 30.8518L58.9636 28.4668L45.7808 14.3075L43.2192 16.6925ZM56.402 29.1482L43.2192 43.3075L45.7808 45.6925L58.9636 31.5332L56.402 29.1482ZM56.402 30.8518C55.9551 30.3718 55.9551 29.6282 56.402 29.1482L58.9636 31.5332C59.7679 30.6693 59.7679 29.3307 58.9636 28.4668L56.402 30.8518ZM2.0364 28.4668C1.23208 29.3307 1.23208 30.6693 2.0364 31.5332L4.59803 29.1482C5.04487 29.6282 5.04487 30.3718 4.59803 30.8518L2.0364 28.4668Z" fill="white"/>
</svg>
