<svg width="21" height="20" viewBox="0 0 21 20" fill="none" xmlns="http://www.w3.org/2000/svg">
<circle cx="10.6496" cy="10.8318" r="7" transform="rotate(-16.506 10.6496 10.8318)" stroke="#F86671" stroke-width="2"/>
<path d="M5.97959 4.47749C5.57449 3.11042 6.35432 1.6738 7.72138 1.2687C9.08845 0.8636 10.5251 1.64343 10.9302 3.01049L11.049 3.41157L6.09844 4.87857L5.97959 4.47749Z" fill="#F86671"/>
<path d="M10.155 10.6421L12.379 9.05356C12.4249 9.02073 12.4815 9.07735 12.4487 9.12331L10.8602 11.3473C10.857 11.3518 10.853 11.3557 10.8485 11.3589L8.62456 12.9475C8.57861 12.9803 8.52199 12.9237 8.55482 12.8777L10.1434 10.6537C10.1466 10.6492 10.1505 10.6453 10.155 10.6421Z" fill="#F86671" stroke="#F86671" stroke-width="0.3" stroke-linecap="round"/>
</svg>
