<svg width="19" height="20" viewBox="0 0 19 20" fill="none" xmlns="http://www.w3.org/2000/svg">
<circle cx="9.64956" cy="10.8316" r="7" transform="rotate(-16.506 9.64956 10.8316)" stroke="#F86671" stroke-width="2"/>
<path d="M4.97959 4.47724C4.57449 3.11018 5.35432 1.67355 6.72138 1.26846C8.08845 0.863355 9.52507 1.64318 9.93017 3.01025L10.049 3.41133L5.09844 4.87832L4.97959 4.47724Z" fill="#F86671"/>
<path d="M9.15499 10.6419L11.379 9.05332C11.4249 9.02049 11.4815 9.07711 11.4487 9.12306L9.86016 11.347C9.85695 11.3515 9.85303 11.3555 9.84854 11.3587L7.62456 12.9472C7.57861 12.98 7.52199 12.9234 7.55482 12.8775L9.14337 10.6535C9.14657 10.649 9.1505 10.6451 9.15499 10.6419Z" fill="#F86671" stroke="#F86671" stroke-width="0.3" stroke-linecap="round"/>
</svg>
