<svg width="24" height="24" viewBox="0 0 24 24" fill="none" xmlns="http://www.w3.org/2000/svg">
<path d="M1 23L6.92529 1.07643C6.93488 1.04096 6.9769 1.02649 7.00498 1.05019C8.23861 2.09168 11.3996 4.31575 14.6757 5.27778C16.2298 5.73414 17.8443 6.03075 19.2654 6.21732M3.97297 12C5.16216 13.0185 8.37297 15.3 11.7027 16.2778C13.318 16.7521 14.9986 17.0539 16.4595 17.2389M21.2162 6.42055C21.9279 6.47502 22.52 6.49766 22.9348 6.49983C22.9677 6.5 22.9916 6.53126 22.983 6.56305L20.037 17.463C20.0311 17.4849 20.0114 17.5 19.9888 17.4999C19.5729 17.4986 18.9704 17.4762 18.2432 17.4206M21.2162 6.42055L18.2432 17.4206M21.2162 6.42055C20.6351 6.37608 19.9743 6.31039 19.2654 6.21732M18.2432 17.4206C17.708 17.3796 17.1052 17.3206 16.4595 17.2389M19.2654 6.21732L16.4595 17.2389" stroke="#F86671" stroke-width="2" stroke-linecap="round"/>
</svg>
