<svg width="60" height="60" viewBox="0 0 60 60" fill="none" xmlns="http://www.w3.org/2000/svg">
<path d="M2 45C6.8376 40.6999 9.725 38.5543 14.2412 34.6093C14.9714 33.9715 16.0545 33.9377 16.8155 34.5385L23.6035 39.8975C24.3995 40.5259 25.5418 40.4582 26.259 39.741L42.9836 23.0164C43.803 22.197 45.1462 22.242 45.9073 23.1158L58 37M7 58H53C55.7614 58 58 55.7614 58 53V7C58 4.23858 55.7614 2 53 2H7C4.23858 2 2 4.23858 2 7V53C2 55.7614 4.23858 58 7 58ZM26 16C26 19.866 22.866 23 19 23C15.134 23 12 19.866 12 16C12 12.134 15.134 9 19 9C22.866 9 26 12.134 26 16Z" stroke="white" stroke-width="3.5"/>
</svg>
