<?xml version="1.0" encoding="UTF-8"?>
<svg xmlns="http://www.w3.org/2000/svg" xmlns:xlink="http://www.w3.org/1999/xlink" viewBox="0 0 96 96" width="96px" height="96px">
<g id="surface1262388">
<path style=" stroke:none;fill-rule:nonzero;fill:rgb(100%,100%,100%);fill-opacity:1;" d="M 20 12 C 15.628906 12 12 15.628906 12 20 L 12 76 C 12 80.371094 15.628906 84 20 84 L 76 84 C 80.371094 84 84 80.371094 84 76 L 84 48 L 76 48 L 76 76 L 20 76 L 20 20 L 48 20 L 48 12 Z M 56 12 L 56 20 L 70.34375 20 L 33.171875 57.171875 L 38.828125 62.828125 L 76 25.65625 L 76 40 L 84 40 L 84 12 Z M 56 12 "/>
</g>
</svg>
