<svg width="19" height="25" viewBox="0 0 19 25" fill="none" xmlns="http://www.w3.org/2000/svg">
<path d="M6.88462 1L17.9735 20.8899C17.9877 20.9155 17.9785 20.9472 17.9517 20.9592C16.3947 21.6534 12.6059 23 9.5 23C6.39415 23 2.60528 21.6534 1.0483 20.9592C1.02155 20.9472 1.01225 20.9155 1.02652 20.8899L12.1154 1" stroke="#F86671" stroke-width="1.5" stroke-linecap="round"/>
<path d="M4.06748 23.4325L9.46464 18.0354C9.48417 18.0158 9.51583 18.0158 9.53536 18.0354L14.9325 23.4325C14.961 23.461 14.9458 23.5099 14.9061 23.5171L13.0777 23.8495C10.712 24.2796 8.28804 24.2796 5.92229 23.8495L4.09389 23.5171C4.05421 23.5099 4.03896 23.461 4.06748 23.4325Z" fill="#F86671" stroke="#F86671" stroke-linecap="round"/>
</svg>
