<svg width="180" height="180" viewBox="0 0 180 180" fill="none" xmlns="http://www.w3.org/2000/svg">
<circle cx="90" cy="90" r="86" stroke="#F86671" stroke-width="8"/>
<path d="M44 66.5L43.0481 68.5281C36.402 82.6871 36.7541 99.1383 44 113V113" stroke="#F86671" stroke-width="2" stroke-linecap="round"/>
<path d="M120.001 133.036L121.814 131.718C134.466 122.523 142.095 107.943 142.436 92.3057V92.3057" stroke="#F86671" stroke-width="2" stroke-linecap="round"/>
<path d="M73.2739 44.1381L68.8841 45.8099L69.0629 48.5842L65.6406 49.8875L65.4535 34.7438L68.4651 33.5968L78.4355 45.0147L74.9949 46.325L73.2739 44.1381ZM68.7089 43.0447L71.5654 41.9569L68.3774 37.8938L68.7089 43.0447Z" fill="#F86671"/>
<path d="M82.5162 138.145L87.1847 138.665L88.2937 136.115L91.9333 136.52L85.1784 150.075L81.9755 149.719L78.3259 135.007L81.9849 135.414L82.5162 138.145ZM86.0768 141.204L83.0389 140.866L84.0175 145.937L86.0768 141.204Z" fill="#F86671"/>
<path d="M134.108 68.3882L131.855 64.2664L129.131 64.8206L127.375 61.6071L142.353 59.3637L143.898 62.1916L133.941 73.6211L132.175 70.3906L134.108 68.3882ZM134.571 63.717L136.037 66.3992L139.629 62.6886L134.571 63.717Z" fill="#F86671"/>
<path d="M90.1197 32.0652L85.8839 32.5852L87.2939 44.0713L83.8917 44.4889L82.4817 33.0028L78.3235 33.5133L78.0011 30.8865L89.7973 29.4385L90.1197 32.0652Z" fill="#F86671"/>
<path d="M96.9808 44.3792L93.5887 43.9595L95.3344 29.8484L98.7265 30.268L96.9808 44.3792Z" fill="#F86671"/>
<path d="M114.814 43.2798C114.245 44.5447 113.508 45.5588 112.601 46.3219C111.694 47.0851 110.689 47.5361 109.584 47.6751C108.488 47.8108 107.388 47.6306 106.283 47.1343C105.179 46.638 104.312 45.9454 103.684 45.0564C103.058 44.1615 102.717 43.1338 102.66 41.9735C102.609 40.8158 102.847 39.6199 103.373 38.3859L103.701 37.6555C104.272 36.3846 105.007 35.3693 105.905 34.6094C106.811 33.8462 107.817 33.3952 108.922 33.2562C110.032 33.1199 111.142 33.3012 112.253 33.8001C113.352 34.2937 114.214 34.9953 114.84 35.9047C115.467 36.8142 115.8 37.8597 115.84 39.0411C115.889 40.2193 115.636 41.4332 115.082 42.683L114.814 43.2798ZM111.878 41.3077C112.457 40.019 112.679 38.9447 112.544 38.0848C112.418 37.2217 111.954 36.61 111.152 36.2498C109.585 35.5454 108.228 36.349 107.082 38.6607L106.645 39.6098C106.074 40.8807 105.846 41.9523 105.961 42.8247C106.076 43.697 106.549 44.32 107.38 44.6935C108.17 45.0484 108.929 44.9863 109.658 44.5074C110.388 44.0284 111.038 43.1608 111.609 41.9045L111.878 41.3077Z" fill="#F86671"/>
<path d="M138.198 79.6308L139.042 85.5375L136.432 85.9107L135.103 76.6107L149.178 74.5985L149.663 77.9917L138.198 79.6308Z" fill="#F86671"/>
<path d="M101.753 138.854L101.202 134.061L104.608 133.67L106.231 147.795L100.595 148.443C99.5146 148.568 98.5376 148.477 97.6636 148.171C96.7839 147.872 96.0753 147.38 95.5378 146.695C94.9945 146.017 94.6694 145.212 94.5623 144.281C94.4039 142.903 94.772 141.744 95.6664 140.802C96.555 139.867 97.8596 139.301 99.58 139.104L101.753 138.854ZM102.055 141.483L99.8241 141.739C99.1644 141.815 98.6821 142.038 98.3772 142.407C98.0658 142.777 97.9447 143.263 98.0139 143.864C98.0897 144.524 98.3282 145.031 98.7293 145.384C99.1304 145.738 99.6385 145.883 100.254 145.819L102.524 145.558L102.055 141.483Z" fill="#F86671"/>
<path d="M55.0633 127.254L57.1501 127.191L59.8452 124.584L62.2286 127.047L52.0097 136.934L49.6263 134.471L54.1321 130.111L52.0053 130.511L46.6657 131.411L43.7187 128.365L51.5794 127.445L53.9376 118.478L56.7623 121.398L55.0633 127.254Z" fill="#F86671"/>
<path d="M67.988 136.211L69.668 136.999L71.7987 132.454L74.9023 133.909L68.8668 146.783L63.8002 144.408C62.2735 143.692 61.2387 142.794 60.6958 141.712C60.153 140.631 60.1718 139.471 60.7521 138.234C61.1722 137.338 61.7031 136.68 62.3449 136.262C62.9809 135.841 63.7706 135.629 64.7142 135.626L64.4594 129.175L64.5216 129.043L67.8463 130.601L67.988 136.211ZM68.5447 139.395L66.5817 138.475C65.9922 138.199 65.4783 138.145 65.0398 138.313C64.5927 138.485 64.2393 138.847 63.9795 139.401C63.7197 139.956 63.6669 140.459 63.8211 140.913C63.9725 141.372 64.34 141.738 64.9236 142.012L66.8866 142.932L68.5447 139.395Z" fill="#F86671"/>
<path d="M62.8759 51.2048L60.4602 53.6091L50.6472 50.8927L56.8886 57.1638L54.4591 59.5818L44.4288 49.5038L46.8583 47.0858L56.6644 49.809L50.423 43.538L52.8456 41.1269L62.8759 51.2048Z" fill="#F86671"/>
<path d="M124.975 59.0436L122.44 56.7655L124.606 46.8166L118.692 53.3973L116.142 51.1061L125.647 40.5305L128.196 42.8216L126.023 52.7641L131.937 46.1833L134.479 48.468L124.975 59.0436Z" fill="#F86671"/>
<path d="M101.471 77.9308L96.5271 66.0649C96.5138 66.0332 96.4732 66.024 96.4476 66.0469L87.0585 74.4477C87.0312 74.4721 87.0385 74.5165 87.0721 74.5309L90.4276 75.969C90.4613 75.9834 90.4685 76.028 90.4411 76.0523L77.0646 87.9425C77.0359 87.9681 77.0456 88.0152 77.082 88.0273L82.927 89.9757C82.9613 89.9871 82.9725 90.0301 82.9481 90.0568L72.5544 101.44C72.5294 101.468 72.5419 101.512 72.5776 101.522L82.9564 104.488C82.9812 104.495 82.9965 104.519 82.9919 104.545L82.0084 109.954C82.0037 109.98 82.0199 110.005 82.0454 110.011L87.9563 111.489C87.9811 111.495 88.0066 111.482 88.0154 111.458L89.9841 106.044C89.993 106.019 90.0196 106.006 90.0448 106.013L100.416 108.976C100.453 108.987 100.488 108.953 100.478 108.915L96.5192 93.5745C96.5102 93.5394 96.5402 93.5067 96.5758 93.5126L102.418 94.4863C102.455 94.4925 102.486 94.457 102.474 94.4212L97.0219 78.0658C97.0111 78.0334 97.0352 78 97.0694 78H101.425C101.461 78 101.485 77.9637 101.471 77.9308Z" fill="#F86671" stroke="#F86671" stroke-width="2" stroke-linecap="round"/>
</svg>
