<svg width="60" height="60" viewBox="0 0 60 60" fill="none" xmlns="http://www.w3.org/2000/svg">
<path d="M20.5015 1.5C20.5015 1.22386 20.7253 1 21.0015 1H25.5C25.7761 1 26 1.22386 26 1.5V17C26 18.9368 25.8089 20.8299 25 22.1743C24.1911 23.5073 23.3441 24.5156 21.8857 25.1992C20.4274 25.8828 18.7127 26.2246 16.7417 26.2246C14.7935 26.2246 13.0788 25.8828 11.5977 25.1992C10.1279 24.5156 9.33171 23.5073 8.5 22.1743C7.67969 20.8299 7.5 18.9368 7.5 17V1.5C7.5 1.22386 7.72386 1 8 1H12.4307C12.7068 1 12.9307 1.22386 12.9307 1.5V17.2524C12.9307 18.2778 13.0788 19.1152 13.375 19.7646C13.6712 20.4027 14.1042 20.8698 14.6738 21.166C15.2435 21.4622 15.9328 21.6104 16.7417 21.6104C17.562 21.6104 18.2513 21.4622 18.8096 21.166C19.3678 20.8698 19.7894 20.4027 20.0742 19.7646C20.359 19.1152 20.5015 18.2778 20.5015 17.2524V1.5Z" fill="white"/>
<path d="M34.755 1C34.9096 1 35.0554 1.07148 35.1501 1.19362L41.0888 8.85254C41.2939 9.11699 41.6958 9.10928 41.8905 8.83717L47.3504 1.20899C47.4443 1.07782 47.5957 1 47.757 1H52.0164C52.4254 1 52.6614 1.46424 52.4204 1.79465L44.2132 13.0466C44.0859 13.221 44.085 13.4574 44.2109 13.6328L52.4321 25.0913C52.6695 25.4222 52.433 25.8828 52.0259 25.8828H47.7614C47.5976 25.8828 47.4443 25.8027 47.3508 25.6682L41.8943 17.8196C41.7 17.5401 41.2892 17.5323 41.0844 17.8043L35.15 25.6836C35.0556 25.809 34.9077 25.8828 34.7506 25.8828H30.9527C30.5497 25.8828 30.3123 25.4304 30.5412 25.0988L38.461 13.6253C38.5798 13.4531 38.5789 13.2252 38.4588 13.054L30.5524 1.78721C30.3199 1.45587 30.5569 1 30.9617 1H34.755Z" fill="white"/>
<path d="M51.5 34C51.7761 34 52 34.2239 52 34.5V38.3828C52 38.659 51.7761 38.8828 51.5 38.8828H44.5C44.2239 38.8828 44 39.1067 44 39.3828V53.3828C44 53.659 44.2239 53.8828 44.5 53.8828H51.5C51.7761 53.8828 52 54.1067 52 54.3828V58.3828C52 58.659 51.7761 58.8828 51.5 58.8828H32.5C32.2239 58.8828 32 58.659 32 58.3828V54.3828C32 54.1067 32.2239 53.8828 32.5 53.8828H39.5C39.7761 53.8828 40 53.659 40 53.3828V39.3828C40 39.1067 39.7761 38.8828 39.5 38.8828H32.5C32.2239 38.8828 32 38.659 32 38.3828V34.5C32 34.2239 32.2239 34 32.5 34H51.5Z" fill="white"/>
<path d="M59 29H1C0.447715 29 0 29.4477 0 30C0 30.5523 0.447714 31 0.999999 31H59C59.5523 31 60 30.5523 60 30C60 29.4477 59.5523 29 59 29Z" fill="white"/>
<path d="M20.5015 34.5C20.5015 34.2239 20.7253 34 21.0015 34H25.5C25.7761 34 26 34.2239 26 34.5V50C26 51.9368 25.8089 53.8299 25 55.1743C24.1911 56.5073 23.3441 57.5156 21.8857 58.1992C20.4274 58.8828 18.7127 59.2246 16.7417 59.2246C14.7935 59.2246 13.0788 58.8828 11.5977 58.1992C10.1279 57.5156 9.33171 56.5073 8.5 55.1743C7.67969 53.8299 7.5 51.9368 7.5 50V34.5C7.5 34.2239 7.72386 34 8 34H12.4307C12.7068 34 12.9307 34.2239 12.9307 34.5V50.2524C12.9307 51.2778 13.0788 52.1152 13.375 52.7646C13.6712 53.4027 14.1042 53.8698 14.6738 54.166C15.2435 54.4622 15.9328 54.6104 16.7417 54.6104C17.562 54.6104 18.2513 54.4622 18.8096 54.166C19.3678 53.8698 19.7894 53.4027 20.0742 52.7646C20.359 52.1152 20.5015 51.2778 20.5015 50.2524V34.5Z" fill="white"/>
</svg>
