<svg width="56" height="50" viewBox="0 0 56 50" fill="none" xmlns="http://www.w3.org/2000/svg">
<path d="M19.5 33.5C15.9997 31 10.9997 23.0697 17.4967 17.4998C23.498 12.355 30.5 16 32.9985 20M37 12.5L42.5 7M24.5 5V1M12 12.5L6.5 7M4.5 25H1M12 37.5L6 43.5M24.5 45V48.5M30.5 40H51.9938C51.9979 40 52.002 39.9995 52.006 39.9985C54.0027 39.4948 55.3486 36.8944 54.5 33.5C53.6669 30.1675 49.0172 30.0052 47.5807 30.9435C47.5462 30.9661 47.4994 30.9428 47.4968 30.9016C47.3981 29.3328 45.0239 25.5 41.5 25.5C37.9281 25.5 36.0298 28.1252 35.0236 29.4685C35.0095 29.4873 34.9857 29.4935 34.9642 29.4839C33.113 28.6582 28.9871 28.0226 27 31.5C24.6466 35.6184 27.5 40 30.5 40Z" stroke="#FEFEFE" stroke-width="2" stroke-linecap="round"/>
</svg>
