<svg width="45" height="45" viewBox="0 0 45 45" fill="none" xmlns="http://www.w3.org/2000/svg">
<path d="M43.3632 39.42L22.9928 4.9082L16.9322 14.3358L27.4293 32.1809L27.7066 32.686C27.9872 33.3594 28.5147 35.0766 28.38 36.558C28.2453 38.0395 26.8649 39.0833 26.1915 39.42H43.3632Z" fill="black"/>
<path d="M18.279 38.2415C17.4709 37.8375 16.5955 36.8947 16.338 36.558L10.1982 26.1203L2.4541 39.42H21.3093C20.6359 39.1394 19.0871 38.6456 18.279 38.2415Z" fill="black"/>
<path d="M43.3632 39.42L22.9928 4.9082L16.9322 14.3358L27.4293 32.1809L27.7066 32.686C27.9872 33.3594 28.5147 35.0766 28.38 36.558C28.2453 38.0395 26.8649 39.0833 26.1915 39.42H43.3632Z" stroke="black" stroke-width="0.818182" stroke-linejoin="round"/>
<path d="M18.279 38.2415C17.4709 37.8375 16.5955 36.8947 16.338 36.558L10.1982 26.1203L2.4541 39.42H21.3093C20.6359 39.1394 19.0871 38.6456 18.279 38.2415Z" stroke="black" stroke-width="0.818182" stroke-linejoin="round"/>
</svg>
