<svg width="1225" height="1137" viewBox="0 0 1225 1137" fill="none" xmlns="http://www.w3.org/2000/svg">
<g id="Frame 2">
<rect width="1225" height="1137" fill="#080B1C"/>
<path id="icon 3" d="M558.687 557.2L549.135 541.508C548.161 539.908 545.839 539.908 544.865 541.508L535.313 557.2C534.299 558.866 535.498 561 537.448 561H556.552C558.502 561 559.701 558.866 558.687 557.2Z" fill="white"/>
<g id="icon 2">
<circle id="Ellipse 2" cx="907.5" cy="575.5" r="23" stroke="white" stroke-opacity="0.5"/>
<path id="Vector 54" d="M899.5 584.5L904.479 566.575C904.489 566.54 904.531 566.525 904.559 566.548C905.602 567.404 908.253 569.215 911 570C912.307 570.373 913.665 570.616 914.86 570.769M902 575.5C903 576.333 905.7 578.2 908.5 579C909.858 579.388 911.272 579.635 912.5 579.786M916.5 570.935C917.092 570.979 917.586 570.998 917.934 571C917.967 571 917.991 571.032 917.982 571.063L915.51 579.963C915.504 579.985 915.485 580 915.462 580C915.113 579.999 914.608 579.98 914 579.935M916.5 570.935L914 579.935M916.5 570.935C916.011 570.899 915.456 570.845 914.86 570.769M914 579.935C913.55 579.901 913.043 579.853 912.5 579.786M914.86 570.769L912.5 579.786" stroke="white" stroke-width="2" stroke-linecap="round"/>
</g>
<g id="icon 1">
<path id="Vector 52" d="M273 737L281.471 751.451C281.487 751.477 281.477 751.51 281.449 751.522C280.25 752.028 277.366 753 275 753C272.634 753 269.75 752.028 268.551 751.522C268.523 751.51 268.513 751.477 268.529 751.451L277 737" stroke="white" stroke-linecap="round"/>
<circle id="Ellipse 1" cx="274.5" cy="745.5" r="23" stroke="white" stroke-opacity="0.5"/>
<path id="Vector 53" d="M271.051 753.449L274.965 749.535C274.984 749.516 275.016 749.516 275.035 749.535L278.949 753.449C278.972 753.472 278.961 753.51 278.931 753.517C276.35 754.163 273.65 754.163 271.069 753.517C271.039 753.51 271.028 753.472 271.051 753.449Z" fill="white" stroke="white" stroke-linecap="round"/>
</g>
</g>
</svg>
